<svg xmlns="http://www.w3.org/2000/svg" width="439" height="96" viewBox="0 0 439 96">
  <g fill="none" fill-rule="evenodd">
    <path fill="#000" d="M211.933594,69.4453125 L216.046875,67.0898438 C216.726566,68.8242274 217.710931,70.130855 219,71.0097656 C220.289069,71.8886763 221.871084,72.328125 223.746094,72.328125 C225.574228,72.328125 227.027338,71.865239 228.105469,70.9394531 C229.183599,70.0136672 229.722656,68.7773515 229.722656,67.2304688 C229.722656,64.8398318 227.601584,62.8125083 223.359375,61.1484375 C222.91406,60.9843742 222.562501,60.8437506 222.304688,60.7265625 C219.023421,59.4374936 216.726569,58.1074287 215.414062,56.7363281 C214.101556,55.3652275 213.445312,53.6718851 213.445312,51.65625 C213.445312,49.0077993 214.382803,46.8339929 216.257812,45.1347656 C218.132822,43.4355384 220.558579,42.5859375 223.535156,42.5859375 C226.066419,42.5859375 228.222647,43.1367132 230.003906,44.2382812 C231.785165,45.3398493 233.085933,46.9101461 233.90625,48.9492188 L229.933594,51.1640625 C229.441404,49.6874926 228.621099,48.5625039 227.472656,47.7890625 C226.324213,47.0156211 224.917977,46.6289062 223.253906,46.6289062 C221.753899,46.6289062 220.517583,47.068355 219.544922,47.9472656 C218.572261,48.8261763 218.085938,49.9218684 218.085938,51.234375 C218.085938,52.5234439 218.566401,53.5898395 219.527344,54.4335938 C220.488286,55.277348 222.480454,56.20312 225.503906,57.2109375 C228.925798,58.406256 231.22851,59.7070242 232.412109,61.1132812 C233.595709,62.5195383 234.1875,64.4648313 234.1875,66.9492188 C234.1875,69.808608 233.167979,72.0937414 231.128906,73.8046875 C229.089834,75.5156336 226.347673,76.3710938 222.902344,76.3710938 C220.253893,76.3710938 217.974619,75.7675842 216.064453,74.5605469 C214.154287,73.3535096 212.777348,71.6484485 211.933594,69.4453125 Z M257.285156,72.328125 C260.707048,72.328125 263.60741,71.0918092 265.986328,68.6191406 C268.365246,66.146472 269.554688,63.1172054 269.554688,59.53125 C269.554688,55.8984193 268.371106,52.8515748 266.003906,50.390625 C263.636707,47.9296752 260.730486,46.6992188 257.285156,46.6992188 C253.863264,46.6992188 250.968762,47.9296752 248.601562,50.390625 C246.234363,52.8515748 245.050781,55.8984193 245.050781,59.53125 C245.050781,63.1172054 246.234363,66.146472 248.601562,68.6191406 C250.968762,71.0918092 253.863264,72.328125 257.285156,72.328125 Z M257.144531,76.3710938 C254.917958,76.3710938 252.785166,75.931645 250.746094,75.0527344 C248.707021,74.1738237 246.855477,72.9140707 245.191406,71.2734375 C243.621086,69.7265548 242.425785,67.9453226 241.605469,65.9296875 C240.785152,63.9140524 240.375,61.757824 240.375,59.4609375 C240.375,57.1874886 240.796871,55.0312602 241.640625,52.9921875 C242.484379,50.9531148 243.691398,49.1484454 245.261719,47.578125 C246.855477,45.984367 248.671865,44.7656292 250.710938,43.921875 C252.75001,43.0781208 254.89452,42.65625 257.144531,42.65625 C259.441418,42.65625 261.626943,43.0781208 263.701172,43.921875 C265.775401,44.7656292 267.621086,45.984367 269.238281,47.578125 C270.855477,49.171883 272.091793,50.9882711 272.947266,53.0273438 C273.802739,55.0664164 274.230469,57.2109262 274.230469,59.4609375 C274.230469,61.7109488 273.808598,63.8495992 272.964844,65.8769531 C272.12109,67.904307 270.902352,69.7031171 269.308594,71.2734375 C267.667961,72.9140707 265.798839,74.1738237 263.701172,75.0527344 C261.603505,75.931645 259.41798,76.3710938 257.144531,76.3710938 Z M287.90625,75 L283.441406,75 L283.441406,20.5078125 L287.90625,20.5078125 L287.90625,75 Z M304.042969,43.8164062 L304.042969,59.390625 C304.042969,64.1250237 304.71679,67.464834 306.064453,69.4101562 C307.412116,71.3554785 309.69139,72.328125 312.902344,72.328125 C316.08986,72.328125 318.374993,71.3437598 319.757812,69.375 C321.140632,67.4062402 321.832031,64.0781484 321.832031,59.390625 L321.832031,43.8164062 L326.121094,43.8164062 L326.121094,61.6054688 C326.121094,66.4570555 325.007824,70.1308469 322.78125,72.6269531 C320.554676,75.1230594 317.285178,76.3710938 312.972656,76.3710938 C308.636697,76.3710938 305.343761,75.1230594 303.09375,72.6269531 C300.843739,70.1308469 299.71875,66.4570555 299.71875,61.6054688 L299.71875,43.8164062 L304.042969,43.8164062 Z M338.566406,47.5078125 L332.835938,47.5078125 L332.835938,43.8164062 L338.566406,43.8164062 L338.566406,31.0195312 L342.820312,31.0195312 L342.820312,43.8164062 L349.078125,43.8164062 L349.078125,47.5078125 L342.820312,47.5078125 L342.820312,75 L338.566406,75 L338.566406,47.5078125 Z M354.703125,31.6523438 C354.703125,30.7382767 355.031247,29.9589876 355.6875,29.3144531 C356.343753,28.6699187 357.128902,28.3476562 358.042969,28.3476562 C358.957036,28.3476562 359.748044,28.6699187 360.416016,29.3144531 C361.083988,29.9589876 361.417969,30.7382767 361.417969,31.6523438 C361.417969,32.5898484 361.095706,33.3749968 360.451172,34.0078125 C359.806637,34.6406282 359.003911,34.9570312 358.042969,34.9570312 C357.105464,34.9570312 356.314456,34.6406282 355.669922,34.0078125 C355.025387,33.3749968 354.703125,32.5898484 354.703125,31.6523438 Z M355.792969,75 L355.792969,43.8164062 L360.257812,43.8164062 L360.257812,75 L355.792969,75 Z M386.378906,72.328125 C389.800798,72.328125 392.70116,71.0918092 395.080078,68.6191406 C397.458996,66.146472 398.648438,63.1172054 398.648438,59.53125 C398.648438,55.8984193 397.464856,52.8515748 395.097656,50.390625 C392.730457,47.9296752 389.824236,46.6992188 386.378906,46.6992188 C382.957014,46.6992188 380.062512,47.9296752 377.695312,50.390625 C375.328113,52.8515748 374.144531,55.8984193 374.144531,59.53125 C374.144531,63.1172054 375.328113,66.146472 377.695312,68.6191406 C380.062512,71.0918092 382.957014,72.328125 386.378906,72.328125 Z M386.238281,76.3710938 C384.011708,76.3710938 381.878916,75.931645 379.839844,75.0527344 C377.800771,74.1738237 375.949227,72.9140707 374.285156,71.2734375 C372.714836,69.7265548 371.519535,67.9453226 370.699219,65.9296875 C369.878902,63.9140524 369.46875,61.757824 369.46875,59.4609375 C369.46875,57.1874886 369.890621,55.0312602 370.734375,52.9921875 C371.578129,50.9531148 372.785148,49.1484454 374.355469,47.578125 C375.949227,45.984367 377.765615,44.7656292 379.804688,43.921875 C381.84376,43.0781208 383.98827,42.65625 386.238281,42.65625 C388.535168,42.65625 390.720693,43.0781208 392.794922,43.921875 C394.869151,44.7656292 396.714836,45.984367 398.332031,47.578125 C399.949227,49.171883 401.185543,50.9882711 402.041016,53.0273438 C402.896489,55.0664164 403.324219,57.2109262 403.324219,59.4609375 C403.324219,61.7109488 402.902348,63.8495992 402.058594,65.8769531 C401.21484,67.904307 399.996102,69.7031171 398.402344,71.2734375 C396.761711,72.9140707 394.892589,74.1738237 392.794922,75.0527344 C390.697255,75.931645 388.51173,76.3710938 386.238281,76.3710938 Z M412.253906,75 L412.253906,43.8164062 L416.367188,43.8164062 L416.367188,48.6328125 C417.632819,46.640615 419.185538,45.1464894 421.025391,44.1503906 C422.865244,43.1542919 424.980457,42.65625 427.371094,42.65625 C430.910174,42.65625 433.664053,43.6406152 435.632812,45.609375 C437.601572,47.5781348 438.585938,50.3202949 438.585938,53.8359375 L438.585938,75 L434.191406,75 L434.191406,55.7695312 C434.191406,52.6523282 433.541022,50.3378982 432.240234,48.8261719 C430.939447,47.3144456 428.929701,46.5585938 426.210938,46.5585938 C422.906233,46.5585938 420.474617,47.5370996 418.916016,49.4941406 C417.357414,51.4511817 416.578125,54.5273228 416.578125,58.7226562 L416.578125,75 L412.253906,75 Z"/>
    <path fill="#0073BE" d="M119.28125,60.7421875 C119.28125,64.7734577 120.189444,67.8788954 122.005859,70.0585938 C123.822275,72.2382921 126.417952,73.328125 129.792969,73.328125 C133.074235,73.328125 135.658194,72.1386838 137.544922,69.7597656 C139.43165,67.3808475 140.375,64.1054896 140.375,59.9335938 C140.375,56.1132621 139.437509,53.1074328 137.5625,50.9160156 C135.687491,48.7245984 133.12111,47.6289062 129.863281,47.6289062 C126.605452,47.6289062 124.027353,48.7949102 122.128906,51.1269531 C120.230459,53.458996 119.28125,56.6640421 119.28125,60.7421875 Z M140.304688,76 L140.304688,70.3046875 C139.273432,72.601574 137.826181,74.3535096 135.962891,75.5605469 C134.0996,76.7675842 131.902356,77.3710938 129.371094,77.3710938 C124.894509,77.3710938 121.291029,75.8359529 118.560547,72.765625 C115.830064,69.6952971 114.464844,65.6406502 114.464844,60.6015625 C114.464844,55.60935 115.812487,51.5371251 118.507812,48.3847656 C121.203138,45.2324061 124.683572,43.65625 128.949219,43.65625 C131.597669,43.65625 133.888662,44.2363223 135.822266,45.3964844 C137.755869,46.5566464 139.249995,48.2617075 140.304688,50.5117188 L140.304688,44.8164062 L144.628906,44.8164062 L144.628906,76 L140.304688,76 Z M160.554688,51.0742188 C162.148445,48.3788928 163.712883,46.4687556 165.248047,45.34375 C166.783211,44.2187444 168.570302,43.65625 170.609375,43.65625 C171.218753,43.65625 171.833981,43.7148432 172.455078,43.8320312 C173.076175,43.9492193 173.691403,44.1132802 174.300781,44.3242188 L172.894531,48.4023438 C172.425779,48.261718 171.939456,48.1445317 171.435547,48.0507812 C170.931638,47.9570308 170.445315,47.9101562 169.976562,47.9101562 C167.374987,47.9101562 165.154306,49.1288941 163.314453,51.5664062 C161.4746,54.0039184 160.554688,57.0390443 160.554688,60.671875 L160.554688,76 L156.230469,76 L156.230469,44.8164062 L160.554688,44.8164062 L160.554688,51.0742188 Z M179.820312,48.5078125 L174.089844,48.5078125 L174.089844,44.8164062 L179.820312,44.8164062 L179.820312,32.0195312 L184.074219,32.0195312 L184.074219,44.8164062 L190.332031,44.8164062 L190.332031,48.5078125 L184.074219,48.5078125 L184.074219,76 L179.820312,76 L179.820312,48.5078125 Z"/>
    <rect width="75" height="75" x=".5" y=".5" stroke="#000" rx="14"/>
    <rect width="73" height="73" x="11.5" y="11.5" stroke="#0073BE" stroke-width="3" rx="14"/>
    <rect width="71" height="71" x="22.5" y="22.5" stroke="#000" stroke-width="5" rx="14"/>
  </g>
</svg>
